<mxfile host="app.diagrams.net" modified="2024-04-27T05:59:08.938Z" agent="Mozilla/5.0 (Windows NT 10.0; Win64; x64) AppleWebKit/537.36 (KHTML, like Gecko) Chrome/124.0.0.0 Safari/537.36" etag="YkhN2uuheA0rwufzJ8Ri" version="24.3.1" type="device">
  <diagram id="v6KiXpzQFniliIx0SQfQ" name="페이지-2">
    <mxGraphModel dx="2636" dy="2210" grid="1" gridSize="10" guides="1" tooltips="1" connect="1" arrows="1" fold="1" page="1" pageScale="1" pageWidth="827" pageHeight="1169" math="0" shadow="0">
      <root>
        <mxCell id="0" />
        <mxCell id="1" parent="0" />
        <mxCell id="slJgg52BA8fFUkIbOtVV-1" value="&lt;font&gt;&lt;font color=&quot;#0000ff&quot;&gt;Class&lt;/font&gt;&amp;nbsp;handler&lt;span style=&quot;color: rgba(0, 0, 0, 0); font-size: 0px; font-weight: 400; text-align: start;&quot;&gt;%3CmxGraphModel%3E%3Croot%3E%3CmxCell%20id%3D%220%22%2F%3E%3CmxCell%20id%3D%221%22%20parent%3D%220%22%2F%3E%3CmxCell%20id%3D%222%22%20value%3D%22%26lt%3Bfont%20color%3D%26quot%3B%230000ff%26quot%3B%26gt%3BClass%26lt%3B%2Ffont%26gt%3B%26amp%3Bnbsp%3BCalculator%22%20style%3D%22swimlane%3BwhiteSpace%3Dwrap%3Bhtml%3D1%3B%22%20vertex%3D%221%22%20parent%3D%221%22%3E%3CmxGeometry%20x%3D%22314%22%20y%3D%22450%22%20width%3D%22200%22%20height%3D%22200%22%20as%3D%22geometry%22%2F%3E%3C%2FmxCell%3E%3C%2Froot%3E%3C%2FmxGraphModel%3E&lt;/span&gt;&lt;/font&gt;" style="swimlane;whiteSpace=wrap;html=1;startSize=55;verticalAlign=middle;fontFamily=Georgia;swimlaneFillColor=#FFFFFF;movable=1;resizable=1;rotatable=1;deletable=1;editable=1;connectable=1;" vertex="1" parent="1">
          <mxGeometry x="-300" y="-1130" width="930" height="1370" as="geometry" />
        </mxCell>
        <mxCell id="slJgg52BA8fFUkIbOtVV-2" value="&lt;div style=&quot;background-color: rgb(255, 255, 255); font-size: 15px; line-height: 14px;&quot;&gt;&lt;div style=&quot;font-size: 15px; line-height: 14px;&quot;&gt;&lt;span style=&quot;color: rgb(0, 0, 255); font-size: 15px;&quot;&gt;void&lt;/span&gt; spread(&lt;span style=&quot;color: rgb(43, 145, 175); font-size: 15px;&quot;&gt;Calculator&lt;/span&gt; &lt;span style=&quot;color: rgb(0, 0, 255); font-size: 15px;&quot;&gt;*&lt;/span&gt;&lt;span style=&quot;color: rgb(128, 128, 128); font-size: 15px;&quot;&gt;All_data&lt;/span&gt;, &lt;span style=&quot;color: rgb(43, 145, 175); font-size: 15px;&quot;&gt;Mon&lt;/span&gt; &lt;span style=&quot;color: rgb(0, 0, 255); font-size: 15px;&quot;&gt;*&lt;/span&gt;&lt;span style=&quot;color: rgb(128, 128, 128); font-size: 15px;&quot;&gt;nn&lt;/span&gt;,&lt;/div&gt;&lt;div style=&quot;font-size: 15px; line-height: 14px;&quot;&gt;&amp;nbsp;&lt;/div&gt;&lt;div style=&quot;font-size: 15px; line-height: 14px;&quot;&gt;&lt;span style=&quot;color: rgb(43, 145, 175); font-size: 15px;&quot;&gt;RegionMarket&lt;/span&gt; &lt;span style=&quot;color: rgb(0, 0, 255); font-size: 15px;&quot;&gt;*&lt;/span&gt;&lt;span style=&quot;color: rgb(128, 128, 128); font-size: 15px;&quot;&gt;Rm&lt;/span&gt;, &lt;span style=&quot;color: rgb(43, 145, 175); font-size: 15px;&quot;&gt;Product&lt;/span&gt; &lt;span style=&quot;color: rgb(0, 0, 255); font-size: 15px;&quot;&gt;*&lt;/span&gt;&lt;span style=&quot;color: rgb(128, 128, 128); font-size: 15px;&quot;&gt;pro&lt;/span&gt;, &lt;span style=&quot;color: rgb(43, 145, 175); font-size: 15px;&quot;&gt;Type&lt;/span&gt; &lt;span style=&quot;color: rgb(0, 0, 255); font-size: 15px;&quot;&gt;*&lt;/span&gt;&lt;span style=&quot;color: rgb(128, 128, 128); font-size: 15px;&quot;&gt;tt&lt;/span&gt;, &lt;span style=&quot;color: rgb(43, 145, 175); font-size: 15px;&quot;&gt;Cheap&lt;/span&gt; &lt;span style=&quot;color: rgb(0, 0, 255); font-size: 15px;&quot;&gt;*&lt;/span&gt;&lt;span style=&quot;color: rgb(128, 128, 128); font-size: 15px;&quot;&gt;cc&lt;/span&gt;)&lt;/div&gt;&lt;/div&gt;" style="text;html=1;align=left;verticalAlign=middle;resizable=0;points=[];autosize=1;strokeColor=none;fillColor=none;fontSize=15;fontFamily=Garamond;fontColor=#000000;spacingTop=3;spacing=5;spacingLeft=1;spacingBottom=4;fontStyle=1" vertex="1" parent="slJgg52BA8fFUkIbOtVV-1">
          <mxGeometry x="90" y="105" width="350" height="60" as="geometry" />
        </mxCell>
        <mxCell id="slJgg52BA8fFUkIbOtVV-3" value="&lt;font&gt;&lt;font color=&quot;#0000ff&quot;&gt;Class&lt;/font&gt;&amp;nbsp;Caclcuator&lt;span style=&quot;color: rgba(0, 0, 0, 0); font-size: 0px; font-weight: 400; text-align: start;&quot;&gt;%3CmxGraphModel%3E%3Croot%3E%3CmxCell%20id%3D%220%22%2F%3E%3CmxCell%20id%3D%221%22%20parent%3D%220%22%2F%3E%3CmxCell%20id%3D%222%22%20value%3D%22%26lt%3Bfont%20color%3D%26quot%3B%230000ff%26quot%3B%26gt%3BClass%26lt%3B%2Ffont%26gt%3B%26amp%3Bnbsp%3BCalculator%22%20style%3D%22swimlane%3BwhiteSpace%3Dwrap%3Bhtml%3D1%3B%22%20vertex%3D%221%22%20parent%3D%221%22%3E%3CmxGeometry%20x%3D%22314%22%20y%3D%22450%22%20width%3D%22200%22%20height%3D%22200%22%20as%3D%22geometry%22%2F%3E%3C%2FmxCell%3E%3C%2Froot%3E%3C%2FmxGraphModel%3E&lt;/span&gt;&lt;/font&gt;" style="swimlane;whiteSpace=wrap;html=1;startSize=55;verticalAlign=middle;fontFamily=Georgia;" vertex="1" parent="slJgg52BA8fFUkIbOtVV-1">
          <mxGeometry x="50" y="750" width="377" height="490" as="geometry" />
        </mxCell>
        <mxCell id="zA5pOfds3SPj7cCdmF6l-4" value="&lt;div style=&quot;color: rgb(0, 0, 0); background-color: rgb(255, 255, 255); font-size: 15px; line-height: 14px; white-space: pre;&quot;&gt;&lt;div style=&quot;font-size: 15px;&quot;&gt;&lt;span style=&quot;color: rgb(0, 0, 255); font-size: 15px;&quot;&gt;bool&lt;/span&gt;&lt;span style=&quot;color: rgb(0, 0, 0); font-size: 15px;&quot;&gt; &lt;/span&gt;&lt;span style=&quot;color: rgb(0, 0, 0); font-size: 15px;&quot;&gt;Check1&lt;/span&gt;&lt;span style=&quot;color: rgb(0, 0, 0); font-size: 15px;&quot;&gt;, &lt;/span&gt;&lt;span style=&quot;color: rgb(0, 0, 0); font-size: 15px;&quot;&gt;Check2&lt;/span&gt;&lt;span style=&quot;color: rgb(0, 0, 0); font-size: 15px;&quot;&gt;;&lt;/span&gt;&lt;/div&gt;&lt;div style=&quot;font-size: 15px;&quot;&gt;&lt;span style=&quot;color: rgb(0, 0, 255); font-size: 15px;&quot;&gt;int&lt;/span&gt;&lt;span style=&quot;color: rgb(0, 0, 0); font-size: 15px;&quot;&gt; &lt;/span&gt;&lt;span style=&quot;color: rgb(0, 0, 0); font-size: 15px;&quot;&gt;num&lt;/span&gt;&lt;span style=&quot;color: rgb(0, 0, 0); font-size: 15px;&quot;&gt;, &lt;/span&gt;&lt;span style=&quot;color: rgb(0, 0, 0); font-size: 15px;&quot;&gt;num2&lt;/span&gt;&lt;span style=&quot;color: rgb(0, 0, 0); font-size: 15px;&quot;&gt;;&lt;/span&gt;&lt;/div&gt;&lt;div style=&quot;font-size: 15px;&quot;&gt;&lt;span style=&quot;color: rgb(0, 0, 255); font-size: 15px;&quot;&gt;int&lt;/span&gt;&lt;span style=&quot;color: rgb(0, 0, 0); font-size: 15px;&quot;&gt; &lt;/span&gt;&lt;span style=&quot;color: rgb(0, 0, 0); font-size: 15px;&quot;&gt;max&lt;/span&gt;&lt;span style=&quot;color: rgb(0, 0, 0); font-size: 15px;&quot;&gt;, &lt;/span&gt;&lt;span style=&quot;color: rgb(0, 0, 0); font-size: 15px;&quot;&gt;max2&lt;/span&gt;&lt;span style=&quot;color: rgb(0, 0, 0); font-size: 15px;&quot;&gt;;&lt;/span&gt;&lt;/div&gt;&lt;div style=&quot;font-size: 15px;&quot;&gt;&lt;span style=&quot;color: rgb(0, 0, 255); font-size: 15px;&quot;&gt;int&lt;/span&gt;&lt;span style=&quot;color: rgb(0, 0, 0); font-size: 15px;&quot;&gt; &lt;/span&gt;&lt;span style=&quot;color: rgb(0, 0, 0); font-size: 15px;&quot;&gt;min&lt;/span&gt;&lt;span style=&quot;color: rgb(0, 0, 0); font-size: 15px;&quot;&gt;, &lt;/span&gt;&lt;span style=&quot;color: rgb(0, 0, 0); font-size: 15px;&quot;&gt;min2&lt;/span&gt;&lt;span style=&quot;color: rgb(0, 0, 0); font-size: 15px;&quot;&gt;;&lt;/span&gt;&lt;/div&gt;&lt;div style=&quot;font-size: 15px;&quot;&gt;&lt;span style=&quot;color: rgb(0, 0, 255); font-size: 15px;&quot;&gt;long&lt;/span&gt;&lt;span style=&quot;color: rgb(0, 0, 0); font-size: 15px;&quot;&gt; &lt;/span&gt;&lt;span style=&quot;color: rgb(0, 0, 255); font-size: 15px;&quot;&gt;long&lt;/span&gt;&lt;span style=&quot;color: rgb(0, 0, 0); font-size: 15px;&quot;&gt; &lt;/span&gt;&lt;span style=&quot;color: rgb(0, 0, 255); font-size: 15px;&quot;&gt;int&lt;/span&gt;&lt;span style=&quot;color: rgb(0, 0, 0); font-size: 15px;&quot;&gt; &lt;/span&gt;&lt;span style=&quot;color: rgb(0, 0, 0); font-size: 15px;&quot;&gt;count&lt;/span&gt;&lt;span style=&quot;color: rgb(0, 0, 0); font-size: 15px;&quot;&gt;;&lt;/span&gt;&lt;/div&gt;&lt;div style=&quot;font-size: 15px;&quot;&gt;&lt;span style=&quot;color: rgb(0, 0, 255); font-size: 15px;&quot;&gt;long&lt;/span&gt;&lt;span style=&quot;color: rgb(0, 0, 0); font-size: 15px;&quot;&gt; &lt;/span&gt;&lt;span style=&quot;color: rgb(0, 0, 255); font-size: 15px;&quot;&gt;long&lt;/span&gt;&lt;span style=&quot;color: rgb(0, 0, 0); font-size: 15px;&quot;&gt; &lt;/span&gt;&lt;span style=&quot;color: rgb(0, 0, 255); font-size: 15px;&quot;&gt;int&lt;/span&gt;&lt;span style=&quot;color: rgb(0, 0, 0); font-size: 15px;&quot;&gt; &lt;/span&gt;&lt;span style=&quot;color: rgb(0, 0, 0); font-size: 15px;&quot;&gt;count2&lt;/span&gt;&lt;span style=&quot;color: rgb(0, 0, 0); font-size: 15px;&quot;&gt;;&lt;/span&gt;&lt;/div&gt;&lt;div style=&quot;font-size: 15px;&quot;&gt;&lt;span style=&quot;color: rgb(0, 0, 255); font-size: 15px;&quot;&gt;long&lt;/span&gt;&lt;span style=&quot;color: rgb(0, 0, 0); font-size: 15px;&quot;&gt; &lt;/span&gt;&lt;span style=&quot;color: rgb(0, 0, 255); font-size: 15px;&quot;&gt;long&lt;/span&gt;&lt;span style=&quot;color: rgb(0, 0, 0); font-size: 15px;&quot;&gt; &lt;/span&gt;&lt;span style=&quot;color: rgb(0, 0, 255); font-size: 15px;&quot;&gt;int&lt;/span&gt;&lt;span style=&quot;color: rgb(0, 0, 0); font-size: 15px;&quot;&gt; &lt;/span&gt;&lt;span style=&quot;color: rgb(0, 0, 0); font-size: 15px;&quot;&gt;sum&lt;/span&gt;&lt;span style=&quot;color: rgb(0, 0, 0); font-size: 15px;&quot;&gt;;&lt;/span&gt;&lt;/div&gt;&lt;div style=&quot;font-size: 15px;&quot;&gt;&lt;span style=&quot;color: rgb(0, 0, 255); font-size: 15px;&quot;&gt;long&lt;/span&gt;&lt;span style=&quot;color: rgb(0, 0, 0); font-size: 15px;&quot;&gt; &lt;/span&gt;&lt;span style=&quot;color: rgb(0, 0, 255); font-size: 15px;&quot;&gt;long&lt;/span&gt;&lt;span style=&quot;color: rgb(0, 0, 0); font-size: 15px;&quot;&gt; &lt;/span&gt;&lt;span style=&quot;color: rgb(0, 0, 255); font-size: 15px;&quot;&gt;int&lt;/span&gt;&lt;span style=&quot;color: rgb(0, 0, 0); font-size: 15px;&quot;&gt; &lt;/span&gt;&lt;span style=&quot;color: rgb(0, 0, 0); font-size: 15px;&quot;&gt;sum2&lt;/span&gt;&lt;span style=&quot;color: rgb(0, 0, 0); font-size: 15px;&quot;&gt;;&lt;/span&gt;&lt;/div&gt;&lt;/div&gt;" style="text;html=1;align=left;verticalAlign=middle;whiteSpace=wrap;rounded=0;fontSize=15;fontStyle=1;fontFamily=Garamond;" vertex="1" parent="slJgg52BA8fFUkIbOtVV-3">
          <mxGeometry x="40" y="190" width="60" height="25" as="geometry" />
        </mxCell>
        <mxCell id="zA5pOfds3SPj7cCdmF6l-5" value="&lt;div style=&quot;color: rgb(0, 0, 0); background-color: rgb(255, 255, 255); font-size: 12px; line-height: 14px; white-space: pre;&quot;&gt;&lt;div style=&quot;font-size: 12px;&quot;&gt;&lt;span style=&quot;color: rgb(0, 0, 255); font-size: 12px;&quot;&gt;protected:&lt;/span&gt;&lt;/div&gt;&lt;/div&gt;" style="text;html=1;align=center;verticalAlign=middle;whiteSpace=wrap;rounded=0;fontSize=12;fontFamily=Garamond;fontStyle=1" vertex="1" parent="slJgg52BA8fFUkIbOtVV-3">
          <mxGeometry x="20" y="90" width="60" height="30" as="geometry" />
        </mxCell>
        <mxCell id="zA5pOfds3SPj7cCdmF6l-6" value="&lt;div style=&quot;color: rgb(0, 0, 0); background-color: rgb(255, 255, 255); font-size: 12px; line-height: 14px; white-space: pre;&quot;&gt;&lt;div style=&quot;font-size: 12px;&quot;&gt;&lt;span style=&quot;color: rgb(0, 0, 255); font-size: 12px;&quot;&gt;public:&lt;/span&gt;&lt;/div&gt;&lt;/div&gt;" style="text;html=1;align=center;verticalAlign=middle;whiteSpace=wrap;rounded=0;fontSize=12;fontFamily=Garamond;fontStyle=1" vertex="1" parent="slJgg52BA8fFUkIbOtVV-3">
          <mxGeometry x="10" y="310" width="60" height="30" as="geometry" />
        </mxCell>
        <mxCell id="zA5pOfds3SPj7cCdmF6l-3" value="&lt;div style=&quot;background-color: rgb(255, 255, 255); font-size: 15px; line-height: 14px;&quot;&gt;  &lt;span style=&quot;color: rgb(43, 145, 175); font-size: 15px;&quot;&gt;Data&lt;/span&gt; *cal_data;&lt;/div&gt;" style="text;html=1;align=left;verticalAlign=middle;resizable=0;points=[];autosize=1;strokeColor=none;fillColor=none;fontSize=15;fontFamily=Garamond;fontColor=#000000;fontStyle=1" vertex="1" parent="slJgg52BA8fFUkIbOtVV-3">
          <mxGeometry x="27" y="360" width="110" height="30" as="geometry" />
        </mxCell>
        <mxCell id="zA5pOfds3SPj7cCdmF6l-2" value="&lt;div style=&quot;background-color: rgb(255, 255, 255); font-size: 15px; line-height: 14px;&quot;&gt;Calculator(&lt;span style=&quot;color: rgb(43, 145, 175); font-size: 15px;&quot;&gt;Data&lt;/span&gt; &lt;span style=&quot;color: rgb(0, 0, 255); font-size: 15px;&quot;&gt;*&lt;/span&gt;&lt;span style=&quot;color: rgb(128, 128, 128); font-size: 15px;&quot;&gt;address&lt;/span&gt;) : cal_data(&lt;span style=&quot;color: rgb(128, 128, 128); font-size: 15px;&quot;&gt;address&lt;/span&gt;) {}&lt;/div&gt;" style="text;html=1;align=left;verticalAlign=middle;resizable=0;points=[];autosize=1;strokeColor=none;fillColor=none;fontSize=15;fontFamily=Garamond;fontColor=#000000;fontStyle=1" vertex="1" parent="slJgg52BA8fFUkIbOtVV-3">
          <mxGeometry x="27" y="390" width="300" height="30" as="geometry" />
        </mxCell>
        <mxCell id="zA5pOfds3SPj7cCdmF6l-1" value="&lt;div style=&quot;background-color: rgb(255, 255, 255); font-size: 15px; line-height: 14px;&quot;&gt;&lt;span style=&quot;color: rgb(0, 0, 255); font-size: 15px;&quot;&gt;virtual&lt;/span&gt; &lt;span style=&quot;color: rgb(0, 0, 255); font-size: 15px;&quot;&gt;void&lt;/span&gt; Cal() {}&lt;/div&gt;" style="text;html=1;align=left;verticalAlign=middle;resizable=0;points=[];autosize=1;strokeColor=none;fillColor=none;fontSize=15;fontFamily=Garamond;fontColor=#000000;fontStyle=1" vertex="1" parent="slJgg52BA8fFUkIbOtVV-3">
          <mxGeometry x="27" y="420" width="140" height="30" as="geometry" />
        </mxCell>
        <mxCell id="slJgg52BA8fFUkIbOtVV-7" value="&lt;div style=&quot;font-size: 15px; line-height: 14px;&quot;&gt;&lt;span style=&quot;color: rgb(0, 0, 255); font-size: 15px;&quot;&gt;void&lt;/span&gt; Cal(&lt;span style=&quot;font-size: 15px; color: rgb(43, 145, 175);&quot;&gt;string&lt;/span&gt;&lt;span style=&quot;background-color: rgb(255, 255, 255); font-size: 15px;&quot;&gt; &lt;/span&gt;&lt;span style=&quot;font-size: 15px; color: rgb(0, 0, 255);&quot;&gt;&amp;amp;&lt;/span&gt;&lt;span style=&quot;font-size: 15px; color: rgb(128, 128, 128);&quot;&gt;ch&lt;/span&gt;&lt;span style=&quot;background-color: rgb(255, 255, 255); font-size: 15px;&quot;&gt;, &lt;/span&gt;&lt;span style=&quot;font-size: 15px; color: rgb(43, 145, 175);&quot;&gt;string&lt;/span&gt;&lt;span style=&quot;background-color: rgb(255, 255, 255); font-size: 15px;&quot;&gt; &lt;/span&gt;&lt;span style=&quot;font-size: 15px; color: rgb(0, 0, 255);&quot;&gt;&amp;amp;&lt;/span&gt;&lt;span style=&quot;font-size: 15px; color: rgb(128, 128, 128);&quot;&gt;doso_me&lt;/span&gt;&lt;span style=&quot;background-color: rgb(255, 255, 255); font-size: 15px;&quot;&gt;, &lt;/span&gt;&lt;span style=&quot;font-size: 15px; color: rgb(0, 0, 255);&quot;&gt;int&lt;/span&gt;&lt;span style=&quot;background-color: rgb(255, 255, 255); font-size: 15px;&quot;&gt; &lt;/span&gt;&lt;span style=&quot;font-size: 15px; color: rgb(128, 128, 128);&quot;&gt;choiceint&lt;/span&gt;&lt;span style=&quot;background-color: rgb(255, 255, 255); font-size: 15px;&quot;&gt;,&lt;/span&gt;&lt;/div&gt;&lt;div style=&quot;text-align: left; font-size: 15px; line-height: 14px;&quot;&gt;&lt;span style=&quot;background-color: rgb(255, 255, 255); font-size: 15px;&quot;&gt;&lt;/span&gt;&lt;span style=&quot;font-size: 15px; color: rgb(43, 145, 175);&quot;&gt;string&lt;/span&gt;&lt;span style=&quot;background-color: rgb(255, 255, 255); font-size: 15px;&quot;&gt; &lt;/span&gt;&lt;span style=&quot;font-size: 15px; color: rgb(0, 0, 255);&quot;&gt;&amp;amp;&lt;/span&gt;&lt;span style=&quot;font-size: 15px; color: rgb(128, 128, 128);&quot;&gt;prod1&lt;/span&gt;&lt;span style=&quot;background-color: rgb(255, 255, 255); font-size: 15px;&quot;&gt;, &lt;/span&gt;&lt;span style=&quot;font-size: 15px; color: rgb(43, 145, 175);&quot;&gt;string&lt;/span&gt;&lt;span style=&quot;background-color: rgb(255, 255, 255); font-size: 15px;&quot;&gt; &lt;/span&gt;&lt;span style=&quot;font-size: 15px; color: rgb(0, 0, 255);&quot;&gt;&amp;amp;&lt;/span&gt;&lt;span style=&quot;font-size: 15px; color: rgb(128, 128, 128);&quot;&gt;prod2&lt;/span&gt;&lt;span style=&quot;font-size: 15px; text-align: left; background-color: initial;&quot;&gt;)&lt;/span&gt;&lt;/div&gt;" style="text;html=1;align=center;verticalAlign=middle;resizable=0;points=[];autosize=1;strokeColor=none;fillColor=none;fontSize=15;fontFamily=Garamond;fontColor=#000000;labelBackgroundColor=none;fontStyle=1" vertex="1" parent="slJgg52BA8fFUkIbOtVV-1">
          <mxGeometry x="530" y="800" width="330" height="40" as="geometry" />
        </mxCell>
        <mxCell id="slJgg52BA8fFUkIbOtVV-8" value="&lt;font color=&quot;#0000ff&quot;&gt;Class&lt;/font&gt;&amp;nbsp;Mon&lt;span style=&quot;color: rgba(0, 0, 0, 0); font-size: 0px; font-weight: 400; text-align: start;&quot;&gt;%3CmxGraphModel%3E%3Croot%3E%3CmxCell%20id%3D%220%22%2F%3E%3CmxCell%20id%3D%221%22%20parent%3D%220%22%2F%3E%3CmxCell%20id%3D%222%22%20value%3D%22%26lt%3Bfont%20color%3D%26quot%3B%230000ff%26quot%3B%26gt%3BClass%26lt%3B%2Ffont%26gt%3B%26amp%3Bnbsp%3BCalculator%22%20style%3D%22swimlane%3BwhiteSpace%3Dwrap%3Bhtml%3D1%3B%22%20vertex%3D%221%22%20parent%3D%221%22%3E%3CmxGeometry%20x%3D%22314%22%20y%3D%22450%22%20width%3D%22200%22%20height%3D%22200%22%20as%3D%22geometry%22%2F%3E%3C%2FmxCell%3E%3C%2Froot%3E%3C%2FmxGraphModel%3E&lt;/span&gt;" style="swimlane;whiteSpace=wrap;html=1;fontFamily=Georgia;" vertex="1" parent="1">
          <mxGeometry x="207" y="-663" width="400" height="200" as="geometry" />
        </mxCell>
        <mxCell id="slJgg52BA8fFUkIbOtVV-9" value="&lt;div style=&quot;font-size: 15px; line-height: 14px;&quot;&gt;&lt;div style=&quot;background-color: rgb(255, 255, 255); font-size: 15px; line-height: 14px;&quot;&gt;&lt;span style=&quot;color: rgb(0, 0, 255); font-size: 15px;&quot;&gt;void&lt;/span&gt; Cal(&lt;span style=&quot;color: rgb(43, 145, 175); font-size: 15px;&quot;&gt;string&lt;/span&gt; &lt;span style=&quot;color: rgb(0, 0, 255); font-size: 15px;&quot;&gt;&amp;amp;&lt;/span&gt;&lt;span style=&quot;color: rgb(128, 128, 128); font-size: 15px;&quot;&gt;ch&lt;/span&gt;, &lt;span style=&quot;color: rgb(43, 145, 175); font-size: 15px;&quot;&gt;string&lt;/span&gt; &lt;span style=&quot;color: rgb(0, 0, 255); font-size: 15px;&quot;&gt;&amp;amp;&lt;/span&gt;&lt;span style=&quot;color: rgb(128, 128, 128); font-size: 15px;&quot;&gt;doso_me&lt;/span&gt;, &lt;span style=&quot;color: rgb(0, 0, 255); font-size: 15px;&quot;&gt;int&lt;/span&gt; &lt;span style=&quot;color: rgb(128, 128, 128); font-size: 15px;&quot;&gt;choiceint&lt;/span&gt;,&lt;/div&gt;&lt;div style=&quot;background-color: rgb(255, 255, 255); font-size: 15px; line-height: 14px;&quot;&gt;&lt;span style=&quot;color: rgb(43, 145, 175); font-size: 15px;&quot;&gt;string&lt;/span&gt; &lt;span style=&quot;color: rgb(0, 0, 255); font-size: 15px;&quot;&gt;&amp;amp;&lt;/span&gt;&lt;span style=&quot;color: rgb(128, 128, 128); font-size: 15px;&quot;&gt;prod&lt;/span&gt;,&lt;span style=&quot;color: rgb(0, 0, 255); font-size: 15px;&quot;&gt;int&lt;/span&gt; &lt;span style=&quot;color: rgb(128, 128, 128); font-size: 15px;&quot;&gt;month1&lt;/span&gt;, &lt;span style=&quot;color: rgb(0, 0, 255); font-size: 15px;&quot;&gt;int&lt;/span&gt; &lt;span style=&quot;color: rgb(128, 128, 128); font-size: 15px;&quot;&gt;month2&lt;/span&gt;, &lt;span style=&quot;color: rgb(0, 0, 255); font-size: 15px;&quot;&gt;int&lt;/span&gt; &lt;span style=&quot;color: rgb(128, 128, 128); font-size: 15px;&quot;&gt;year&lt;/span&gt;)&lt;/div&gt;&lt;/div&gt;" style="text;html=1;align=left;verticalAlign=middle;resizable=0;points=[];autosize=1;strokeColor=none;fillColor=none;fontSize=15;fontFamily=Garamond;fontColor=#000000;labelBackgroundColor=none;fontStyle=1;spacingLeft=0;spacingTop=0;" vertex="1" parent="slJgg52BA8fFUkIbOtVV-8">
          <mxGeometry x="20" y="100" width="330" height="40" as="geometry" />
        </mxCell>
        <mxCell id="slJgg52BA8fFUkIbOtVV-10" value="&lt;div style=&quot;font-size: 15px; line-height: 14px;&quot;&gt;&lt;div style=&quot;background-color: rgb(255, 255, 255); font-size: 15px; line-height: 14px;&quot;&gt;Mon(&lt;span style=&quot;color: rgb(43, 145, 175); font-size: 15px;&quot;&gt;Data&lt;/span&gt; &lt;span style=&quot;color: rgb(0, 0, 255); font-size: 15px;&quot;&gt;*&lt;/span&gt;&lt;span style=&quot;color: rgb(128, 128, 128); font-size: 15px;&quot;&gt;address&lt;/span&gt;) : &lt;span style=&quot;color: rgb(43, 145, 175); font-size: 15px;&quot;&gt;Calculator&lt;/span&gt;(&lt;span style=&quot;color: rgb(128, 128, 128); font-size: 15px;&quot;&gt;address&lt;/span&gt;) {}&lt;/div&gt;&lt;/div&gt;" style="text;html=1;align=left;verticalAlign=middle;resizable=0;points=[];autosize=1;strokeColor=none;fillColor=none;fontSize=15;fontFamily=Garamond;fontColor=#000000;labelBackgroundColor=none;fontStyle=1" vertex="1" parent="slJgg52BA8fFUkIbOtVV-8">
          <mxGeometry x="20" y="70" width="280" height="30" as="geometry" />
        </mxCell>
        <mxCell id="slJgg52BA8fFUkIbOtVV-11" value="&lt;font color=&quot;#0000ff&quot;&gt;Class&lt;/font&gt;&amp;nbsp;RegionMarket&lt;span style=&quot;color: rgba(0, 0, 0, 0); font-size: 0px; font-weight: 400; text-align: start;&quot;&gt;%3CmxGraphModel%3E%3Croot%3E%3CmxCell%20id%3D%220%22%2F%3E%3CmxCell%20id%3D%221%22%20parent%3D%220%22%2F%3E%3CmxCell%20id%3D%222%22%20value%3D%22%26lt%3Bfont%20color%3D%26quot%3B%230000ff%26quot%3B%26gt%3BClass%26lt%3B%2Ffont%26gt%3B%26amp%3Bnbsp%3BCalculator%22%20style%3D%22swimlane%3BwhiteSpace%3Dwrap%3Bhtml%3D1%3B%22%20vertex%3D%221%22%20parent%3D%221%22%3E%3CmxGeometry%20x%3D%22314%22%20y%3D%22450%22%20width%3D%22200%22%20height%3D%22200%22%20as%3D%22geometry%22%2F%3E%3C%2FmxCell%3E%3C%2Froot%3E%3C%2FmxGraphModel%&lt;/span&gt;" style="swimlane;whiteSpace=wrap;html=1;fontFamily=Georgia;" vertex="1" parent="1">
          <mxGeometry x="207" y="-213" width="400" height="200" as="geometry" />
        </mxCell>
        <mxCell id="slJgg52BA8fFUkIbOtVV-12" value="&lt;div style=&quot;font-size: 15px; line-height: 14px;&quot;&gt;&lt;span style=&quot;color: rgb(0, 0, 255); font-size: 15px;&quot;&gt;void&lt;/span&gt; Cal(&lt;span style=&quot;color: rgb(43, 145, 175); font-size: 15px;&quot;&gt;string&lt;/span&gt; &lt;span style=&quot;color: rgb(0, 0, 255); font-size: 15px;&quot;&gt;&amp;amp;&lt;/span&gt;&lt;span style=&quot;color: rgb(128, 128, 128); font-size: 15px;&quot;&gt;ch1&lt;/span&gt;, &lt;span style=&quot;color: rgb(43, 145, 175); font-size: 15px;&quot;&gt;string&lt;/span&gt; &lt;span style=&quot;color: rgb(0, 0, 255); font-size: 15px;&quot;&gt;&amp;amp;&lt;/span&gt;&lt;span style=&quot;color: rgb(128, 128, 128); font-size: 15px;&quot;&gt;ch2&lt;/span&gt;, &lt;span style=&quot;color: rgb(43, 145, 175); font-size: 15px;&quot;&gt;string&lt;/span&gt; &lt;span style=&quot;color: rgb(0, 0, 255); font-size: 15px;&quot;&gt;&amp;amp;&lt;/span&gt;&lt;span style=&quot;color: rgb(128, 128, 128); font-size: 15px;&quot;&gt;doso_me&lt;/span&gt;,&amp;nbsp;&lt;/div&gt;&lt;div style=&quot;font-size: 15px; line-height: 14px;&quot;&gt;&lt;span style=&quot;color: rgb(0, 0, 255); font-size: 15px;&quot;&gt;int&lt;/span&gt; &lt;span style=&quot;color: rgb(128, 128, 128); font-size: 15px;&quot;&gt;choiceint&lt;/span&gt;, &lt;span style=&quot;color: rgb(43, 145, 175); font-size: 15px;&quot;&gt;string&lt;/span&gt; &lt;span style=&quot;color: rgb(0, 0, 255); font-size: 15px;&quot;&gt;&amp;amp;&lt;/span&gt;&lt;span style=&quot;color: rgb(128, 128, 128); font-size: 15px;&quot;&gt;prod&lt;/span&gt;)&lt;/div&gt;" style="text;html=1;align=left;verticalAlign=middle;resizable=0;points=[];autosize=1;strokeColor=none;fillColor=none;fontSize=15;fontFamily=Garamond;fontColor=#000000;labelBackgroundColor=none;fontStyle=1" vertex="1" parent="slJgg52BA8fFUkIbOtVV-11">
          <mxGeometry x="20" y="110" width="330" height="40" as="geometry" />
        </mxCell>
        <mxCell id="slJgg52BA8fFUkIbOtVV-13" value="&lt;div style=&quot;font-size: 15px; line-height: 14px;&quot;&gt;&lt;div style=&quot;background-color: rgb(255, 255, 255); font-size: 15px; line-height: 14px;&quot;&gt;RegionMarket(&lt;span style=&quot;color: rgb(43, 145, 175); font-size: 15px;&quot;&gt;Data&lt;/span&gt; &lt;span style=&quot;color: rgb(0, 0, 255); font-size: 15px;&quot;&gt;*&lt;/span&gt;&lt;span style=&quot;color: rgb(128, 128, 128); font-size: 15px;&quot;&gt;address&lt;/span&gt;) : &lt;span style=&quot;color: rgb(43, 145, 175); font-size: 15px;&quot;&gt;Calculator&lt;/span&gt;(&lt;span style=&quot;color: rgb(128, 128, 128); font-size: 15px;&quot;&gt;address&lt;/span&gt;) {}&lt;/div&gt;&lt;/div&gt;" style="text;html=1;align=left;verticalAlign=middle;resizable=0;points=[];autosize=1;strokeColor=none;fillColor=none;fontSize=15;fontFamily=Garamond;fontColor=#000000;labelBackgroundColor=none;fontStyle=1" vertex="1" parent="slJgg52BA8fFUkIbOtVV-11">
          <mxGeometry x="20" y="70" width="340" height="30" as="geometry" />
        </mxCell>
        <mxCell id="slJgg52BA8fFUkIbOtVV-14" value="&lt;font color=&quot;#0000ff&quot;&gt;Class&lt;/font&gt;&amp;nbsp;Type&lt;span style=&quot;color: rgba(0, 0, 0, 0); font-size: 0px; font-weight: 400; text-align: start;&quot;&gt;%3CmxGraphModel%3E%3Croot%3E%3CmxCell%20id%3D%220%22%2F%3E%3CmxCell%20id%3D%221%22%20parent%3D%220%22%2F%3E%3CmxCell%20id%3D%222%22%20value%3D%22%26lt%3Bfont%20color%3D%26quot%3B%230000ff%26quot%3B%26gt%3BClass%26lt%3B%2Ffont%26gt%3B%26amp%3Bnbsp%3BCalculator%22%20style%3D%22swimlane%3BwhiteSpace%3Dwrap%3Bhtml%3D1%3B%22%20vertex%3D%221%22%20parent%3D%221%22%3E%3CmxGeometry%20x%3D%22314%22%20y%3D%22450%22%20width%3D%22200%22%20height%3D%22200%22%20as%3D%22geometry%22%2F%3E%3C%2FmxCell%3E%3C%2Froot%3E%3C%2FmxGraphModel%3E&lt;/span&gt;" style="swimlane;whiteSpace=wrap;html=1;fontFamily=Georgia;swimlaneFillColor=default;" vertex="1" parent="1">
          <mxGeometry x="207" y="-883" width="400" height="200" as="geometry" />
        </mxCell>
        <mxCell id="slJgg52BA8fFUkIbOtVV-15" value="&lt;div style=&quot;font-size: 15px; line-height: 14px;&quot;&gt;&lt;span style=&quot;color: rgb(0, 0, 255); font-size: 15px;&quot;&gt;void&lt;/span&gt; Cal(&lt;span style=&quot;font-size: 15px; color: rgb(43, 145, 175);&quot;&gt;string&lt;/span&gt;&lt;span style=&quot;background-color: rgb(255, 255, 255); font-size: 15px;&quot;&gt; &lt;/span&gt;&lt;span style=&quot;font-size: 15px; color: rgb(0, 0, 255);&quot;&gt;&amp;amp;&lt;/span&gt;&lt;span style=&quot;font-size: 15px; color: rgb(128, 128, 128);&quot;&gt;ch&lt;/span&gt;&lt;span style=&quot;background-color: rgb(255, 255, 255); font-size: 15px;&quot;&gt;, &lt;/span&gt;&lt;span style=&quot;font-size: 15px; color: rgb(43, 145, 175);&quot;&gt;string&lt;/span&gt;&lt;span style=&quot;background-color: rgb(255, 255, 255); font-size: 15px;&quot;&gt; &lt;/span&gt;&lt;span style=&quot;font-size: 15px; color: rgb(0, 0, 255);&quot;&gt;&amp;amp;&lt;/span&gt;&lt;span style=&quot;font-size: 15px; color: rgb(128, 128, 128);&quot;&gt;doso_me&lt;/span&gt;&lt;span style=&quot;background-color: rgb(255, 255, 255); font-size: 15px;&quot;&gt;, &lt;/span&gt;&lt;span style=&quot;font-size: 15px; color: rgb(0, 0, 255);&quot;&gt;int&lt;/span&gt;&lt;span style=&quot;background-color: rgb(255, 255, 255); font-size: 15px;&quot;&gt; &lt;/span&gt;&lt;span style=&quot;font-size: 15px; color: rgb(128, 128, 128);&quot;&gt;choiceint&lt;/span&gt;&lt;span style=&quot;background-color: rgb(255, 255, 255); font-size: 15px;&quot;&gt;,&lt;/span&gt;&lt;/div&gt;&lt;div style=&quot;font-size: 15px; line-height: 14px;&quot;&gt;&lt;span style=&quot;background-color: rgb(255, 255, 255); font-size: 15px;&quot;&gt;&lt;/span&gt;&lt;span style=&quot;font-size: 15px; color: rgb(43, 145, 175);&quot;&gt;string&lt;/span&gt;&lt;span style=&quot;background-color: rgb(255, 255, 255); font-size: 15px;&quot;&gt; &lt;/span&gt;&lt;span style=&quot;font-size: 15px; color: rgb(0, 0, 255);&quot;&gt;&amp;amp;&lt;/span&gt;&lt;span style=&quot;font-size: 15px; color: rgb(128, 128, 128);&quot;&gt;prod1&lt;/span&gt;&lt;span style=&quot;background-color: rgb(255, 255, 255); font-size: 15px;&quot;&gt;, &lt;/span&gt;&lt;span style=&quot;font-size: 15px; color: rgb(43, 145, 175);&quot;&gt;string&lt;/span&gt;&lt;span style=&quot;background-color: rgb(255, 255, 255); font-size: 15px;&quot;&gt; &lt;/span&gt;&lt;span style=&quot;font-size: 15px; color: rgb(0, 0, 255);&quot;&gt;&amp;amp;&lt;/span&gt;&lt;span style=&quot;font-size: 15px; color: rgb(128, 128, 128);&quot;&gt;prod2&lt;/span&gt;&lt;span style=&quot;font-size: 15px; background-color: initial;&quot;&gt;)&lt;/span&gt;&lt;/div&gt;" style="text;html=1;align=left;verticalAlign=middle;resizable=0;points=[];autosize=1;strokeColor=none;fillColor=none;fontSize=15;fontFamily=Garamond;fontColor=#000000;labelBackgroundColor=none;fontStyle=1" vertex="1" parent="slJgg52BA8fFUkIbOtVV-14">
          <mxGeometry x="20" y="100" width="330" height="40" as="geometry" />
        </mxCell>
        <mxCell id="slJgg52BA8fFUkIbOtVV-16" value="&lt;div style=&quot;font-size: 15px; line-height: 14px;&quot;&gt;&lt;div style=&quot;background-color: rgb(255, 255, 255); font-size: 15px; line-height: 14px;&quot;&gt;Type(&lt;span style=&quot;color: rgb(43, 145, 175); font-size: 15px;&quot;&gt;Data&lt;/span&gt; &lt;span style=&quot;color: rgb(0, 0, 255); font-size: 15px;&quot;&gt;*&lt;/span&gt;&lt;span style=&quot;color: rgb(128, 128, 128); font-size: 15px;&quot;&gt;address&lt;/span&gt;) : &lt;span style=&quot;color: rgb(43, 145, 175); font-size: 15px;&quot;&gt;Calculator&lt;/span&gt;(&lt;span style=&quot;color: rgb(128, 128, 128); font-size: 15px;&quot;&gt;address&lt;/span&gt;) {}&lt;/div&gt;&lt;/div&gt;" style="text;html=1;align=left;verticalAlign=middle;resizable=0;points=[];autosize=1;strokeColor=none;fillColor=none;fontSize=15;fontFamily=Garamond;fontColor=#000000;labelBackgroundColor=none;fontStyle=1" vertex="1" parent="slJgg52BA8fFUkIbOtVV-14">
          <mxGeometry x="20" y="70" width="280" height="30" as="geometry" />
        </mxCell>
        <mxCell id="slJgg52BA8fFUkIbOtVV-17" value="&lt;font&gt;&lt;font color=&quot;#0000ff&quot;&gt;Class&lt;/font&gt;&amp;nbsp;Product&lt;span style=&quot;color: rgba(0, 0, 0, 0); font-size: 0px; font-weight: 400; text-align: start;&quot;&gt;%3CmxGraphModel%3E%3Croot%3E%3CmxCell%20id%3D%220%22%2F%3E%3CmxCell%20id%3D%221%22%20parent%3D%220%22%2F%3E%3CmxCell%20id%3D%222%22%20value%3D%22%26lt%3Bfont%20color%3D%26quot%3B%230000ff%26quot%3B%26gt%3BClass%26lt%3B%2Ffont%26gt%3B%26amp%3Bnbsp%3BCalculator%22%20style%3D%22swimlane%3BwhiteSpace%3Dwrap%3Bhtml%3D1%3B%22%20vertex%3D%221%22%20parent%3D%221%22%3E%3CmxGeometry%20x%3D%22314%22%20y%3D%22450%22%20width%3D%22200%22%20height%3D%22200%22%20as%3D%22geometry%22%2F%3E%3C%2FmxCell%3E%3C%2Froot%3E%3C%2FmxGraphModel%3E&lt;/span&gt;&lt;/font&gt;" style="swimlane;whiteSpace=wrap;html=1;fontFamily=Georgia;" vertex="1" parent="1">
          <mxGeometry x="207" y="-438" width="400" height="200" as="geometry" />
        </mxCell>
        <mxCell id="slJgg52BA8fFUkIbOtVV-18" value="&lt;div style=&quot;font-size: 15px; line-height: 14px;&quot;&gt;&lt;div style=&quot;background-color: rgb(255, 255, 255); font-size: 15px; line-height: 14px;&quot;&gt;Product(&lt;span style=&quot;color: rgb(43, 145, 175); font-size: 15px;&quot;&gt;Data&lt;/span&gt; &lt;span style=&quot;color: rgb(0, 0, 255); font-size: 15px;&quot;&gt;*&lt;/span&gt;&lt;span style=&quot;color: rgb(128, 128, 128); font-size: 15px;&quot;&gt;address&lt;/span&gt;) : &lt;span style=&quot;color: rgb(43, 145, 175); font-size: 15px;&quot;&gt;Calculator&lt;/span&gt;(&lt;span style=&quot;color: rgb(128, 128, 128); font-size: 15px;&quot;&gt;address&lt;/span&gt;) {}&lt;/div&gt;&lt;/div&gt;" style="text;html=1;align=left;verticalAlign=middle;resizable=0;points=[];autosize=1;strokeColor=none;fillColor=none;fontSize=15;fontFamily=Garamond;fontColor=#000000;labelBackgroundColor=none;fontStyle=1" vertex="1" parent="slJgg52BA8fFUkIbOtVV-17">
          <mxGeometry x="20" y="75" width="300" height="30" as="geometry" />
        </mxCell>
        <mxCell id="slJgg52BA8fFUkIbOtVV-19" value="&lt;font color=&quot;#0000ff&quot;&gt;Class&lt;/font&gt;&amp;nbsp;Cheap&lt;span style=&quot;color: rgba(0, 0, 0, 0); font-size: 0px; font-weight: 400; text-align: start;&quot;&gt;%3CmxGraphModel%3E%3Croot%3E%3CmxCell%20id%3D%220%22%2F%3E%3CmxCell%20id%3D%221%22%20parent%3D%220%22%2F%3E%3CmxCell%20id%3D%222%22%20value%3D%22%26lt%3Bfont%20color%3D%26quot%3B%230000ff%26quot%3B%26gt%3BClass%26lt%3B%2Ffont%26gt%3B%26amp%3Bnbsp%3BCalculator%22%20style%3D%22swimlane%3BwhiteSpace%3Dwrap%3Bhtml%3D1%3B%22%20vertex%3D%221%22%20parent%3D%221%22%3E%3CmxGeometry%20x%3D%22314%22%20y%3D%22450%22%20width%3D%22200%22%20height%3D%22200%22%20as%3D%22geometry%22%2F%3E%3C%2FmxCell%3E%3C%2Froot%3E%3C%2FmxGraphModel%3E&lt;/span&gt;" style="swimlane;whiteSpace=wrap;html=1;fontFamily=Georgia;" vertex="1" parent="1">
          <mxGeometry x="207" y="17" width="400" height="200" as="geometry" />
        </mxCell>
        <mxCell id="slJgg52BA8fFUkIbOtVV-20" value="&lt;div style=&quot;font-size: 15px; line-height: 14px;&quot;&gt;&lt;span style=&quot;color: rgb(0, 0, 255); font-size: 15px;&quot;&gt;void&lt;/span&gt; Cal(&lt;span style=&quot;color: rgb(43, 145, 175); font-size: 15px;&quot;&gt;string&lt;/span&gt; &lt;span style=&quot;color: rgb(0, 0, 255); font-size: 15px;&quot;&gt;&amp;amp;&lt;/span&gt;&lt;span style=&quot;color: rgb(128, 128, 128); font-size: 15px;&quot;&gt;doso_me&lt;/span&gt;,&amp;nbsp;&lt;span style=&quot;font-size: 15px; background-color: initial; color: rgb(43, 145, 175);&quot;&gt;string&lt;/span&gt;&lt;span style=&quot;font-size: 15px; background-color: initial;&quot;&gt; &lt;/span&gt;&lt;span style=&quot;font-size: 15px; background-color: initial; color: rgb(0, 0, 255);&quot;&gt;&amp;amp;&lt;/span&gt;&lt;span style=&quot;font-size: 15px; background-color: initial; color: rgb(128, 128, 128);&quot;&gt;prod&lt;/span&gt;&lt;span style=&quot;font-size: 15px; background-color: initial;&quot;&gt;)&lt;/span&gt;&lt;/div&gt;" style="text;html=1;align=left;verticalAlign=middle;resizable=0;points=[];autosize=1;strokeColor=none;fillColor=none;fontSize=15;fontFamily=Garamond;fontColor=#000000;labelBackgroundColor=none;fontStyle=1" vertex="1" parent="slJgg52BA8fFUkIbOtVV-19">
          <mxGeometry x="20" y="115" width="260" height="30" as="geometry" />
        </mxCell>
        <mxCell id="slJgg52BA8fFUkIbOtVV-21" value="&lt;div style=&quot;font-size: 15px; line-height: 14px;&quot;&gt;&lt;div style=&quot;background-color: rgb(255, 255, 255); font-size: 15px; line-height: 14px;&quot;&gt;Cheap(&lt;span style=&quot;color: rgb(43, 145, 175); font-size: 15px;&quot;&gt;Data&lt;/span&gt; &lt;span style=&quot;color: rgb(0, 0, 255); font-size: 15px;&quot;&gt;*&lt;/span&gt;&lt;span style=&quot;color: rgb(128, 128, 128); font-size: 15px;&quot;&gt;address&lt;/span&gt;) : &lt;span style=&quot;color: rgb(43, 145, 175); font-size: 15px;&quot;&gt;Calculator&lt;/span&gt;(&lt;span style=&quot;color: rgb(128, 128, 128); font-size: 15px;&quot;&gt;address&lt;/span&gt;) {}&lt;/div&gt;&lt;/div&gt;" style="text;html=1;align=left;verticalAlign=middle;resizable=0;points=[];autosize=1;strokeColor=none;fillColor=none;fontSize=15;fontFamily=Garamond;fontColor=#000000;labelBackgroundColor=none;fontStyle=1" vertex="1" parent="slJgg52BA8fFUkIbOtVV-19">
          <mxGeometry x="20" y="85" width="290" height="30" as="geometry" />
        </mxCell>
        <mxCell id="slJgg52BA8fFUkIbOtVV-22" style="edgeStyle=orthogonalEdgeStyle;html=1;entryX=0;entryY=0.5;entryDx=0;entryDy=0;fontFamily=Georgia;fontSize=14;fontColor=#000000;startSize=30;" edge="1" parent="1" source="slJgg52BA8fFUkIbOtVV-3" target="slJgg52BA8fFUkIbOtVV-14">
          <mxGeometry relative="1" as="geometry" />
        </mxCell>
        <mxCell id="slJgg52BA8fFUkIbOtVV-23" style="edgeStyle=orthogonalEdgeStyle;html=1;entryX=0;entryY=0.5;entryDx=0;entryDy=0;fontFamily=Georgia;fontSize=14;fontColor=#000000;startSize=30;" edge="1" parent="1" source="slJgg52BA8fFUkIbOtVV-3" target="slJgg52BA8fFUkIbOtVV-8">
          <mxGeometry relative="1" as="geometry" />
        </mxCell>
        <mxCell id="slJgg52BA8fFUkIbOtVV-24" style="edgeStyle=orthogonalEdgeStyle;html=1;entryX=0;entryY=0.5;entryDx=0;entryDy=0;fontFamily=Georgia;fontSize=14;fontColor=#000000;startSize=30;" edge="1" parent="1" source="slJgg52BA8fFUkIbOtVV-3" target="slJgg52BA8fFUkIbOtVV-17">
          <mxGeometry relative="1" as="geometry" />
        </mxCell>
        <mxCell id="slJgg52BA8fFUkIbOtVV-25" value="&lt;font&gt;&lt;font color=&quot;#0000ff&quot;&gt;Class&lt;/font&gt;&amp;nbsp;Data&lt;span style=&quot;color: rgba(0, 0, 0, 0); font-size: 0px; font-weight: 400; text-align: start;&quot;&gt;%3CmxGraphModel%3E%3Croot%3E%3CmxCell%20id%3D%220%22%2F%3E%3CmxCell%20id%3D%221%22%20parent%3D%220%22%2F%3E%3CmxCell%20id%3D%222%22%20value%3D%22%26lt%3Bfont%20color%3D%26quot%3B%230000ff%26quot%3B%26gt%3BClass%26lt%3B%2Ffont%26gt%3B%26amp%3Bnbsp%3BCalculator%22%20style%3D%22swimlane%3BwhiteSpace%3Dwrap%3Bhtml%3D1%3B%22%20vertex%3D%221%22%20parent%3D%221%22%3E%3CmxGeometry%20x%3D%22314%22%20y%3D%22450%22%20width%3D%22200%22%20height%3D%22200%22%20as%3D%22geometry%22%2F%3E%3C%2FmxCell%3E%3C%2Froot%3E%3C%2FmxGraphModel%3E&lt;/span&gt;&lt;/font&gt;" style="swimlane;whiteSpace=wrap;html=1;startSize=55;verticalAlign=middle;fontFamily=Georgia;swimlaneFillColor=#E6E6E6;" vertex="1" parent="1">
          <mxGeometry x="-249" y="-670" width="370" height="230" as="geometry" />
        </mxCell>
        <mxCell id="wY1P5RwbEJGx3b7p0MH7-3" value="&lt;div style=&quot;font-size: 15px; line-height: 14px;&quot;&gt;&lt;div style=&quot;font-size: 15px; line-height: 14px;&quot;&gt;&lt;div style=&quot;font-size: 15px; line-height: 14px;&quot;&gt;&lt;span style=&quot;color: rgb(43, 145, 175); font-size: 15px;&quot;&gt;vector&lt;/span&gt;&amp;lt;&lt;span style=&quot;color: rgb(43, 145, 175); font-size: 15px;&quot;&gt;vector&lt;/span&gt;&amp;lt;&lt;span style=&quot;color: rgb(43, 145, 175); font-size: 15px;&quot;&gt;vector&lt;/span&gt;&amp;lt;&lt;span style=&quot;color: rgb(43, 145, 175); font-size: 15px;&quot;&gt;vector&lt;/span&gt;&amp;lt;&lt;span style=&quot;color: rgb(43, 145, 175); font-size: 15px;&quot;&gt;string&lt;/span&gt;&amp;gt;&amp;gt;&amp;gt;&amp;gt; copy&lt;/div&gt;&lt;/div&gt;&lt;/div&gt;" style="text;html=1;align=left;verticalAlign=middle;resizable=0;points=[];autosize=1;strokeColor=none;fillColor=none;fontSize=15;fontFamily=Garamond;fontColor=#000000;labelBackgroundColor=none;gradientColor=none;glass=0;rounded=0;shadow=0;rotation=0;fontStyle=1" vertex="1" parent="slJgg52BA8fFUkIbOtVV-25">
          <mxGeometry x="19" y="78" width="310" height="30" as="geometry" />
        </mxCell>
        <mxCell id="wY1P5RwbEJGx3b7p0MH7-2" value="&lt;div style=&quot;font-size: 15px; line-height: 14px;&quot;&gt;&lt;div style=&quot;font-size: 15px; line-height: 14px;&quot;&gt;   &lt;span style=&quot;color: rgb(0, 0, 255); font-size: 15px;&quot;&gt;void&lt;/span&gt; modifychoice(&lt;span style=&quot;color: rgb(0, 0, 255); font-size: 15px;&quot;&gt;int&lt;/span&gt; &lt;span style=&quot;color: rgb(128, 128, 128); font-size: 15px;&quot;&gt;years&lt;/span&gt;, &lt;span style=&quot;color: rgb(0, 0, 255); font-size: 15px;&quot;&gt;int&lt;/span&gt; &lt;span style=&quot;color: rgb(128, 128, 128); font-size: 15px;&quot;&gt;month&lt;/span&gt;,&amp;nbsp;&lt;/div&gt;&lt;div style=&quot;font-size: 15px; line-height: 14px;&quot;&gt;&lt;span style=&quot;color: rgb(43, 145, 175); font-size: 15px;&quot;&gt;string&lt;/span&gt; &lt;span style=&quot;color: rgb(0, 0, 255); font-size: 15px;&quot;&gt;&amp;amp;&lt;/span&gt;&lt;span style=&quot;color: rgb(128, 128, 128); font-size: 15px;&quot;&gt;target_value&lt;/span&gt;, &lt;span style=&quot;color: rgb(43, 145, 175); font-size: 15px;&quot;&gt;string&lt;/span&gt; &lt;span style=&quot;color: rgb(0, 0, 255); font-size: 15px;&quot;&gt;&amp;amp;&lt;/span&gt;&lt;span style=&quot;color: rgb(128, 128, 128); font-size: 15px;&quot;&gt;new_value&lt;/span&gt;)&lt;/div&gt;&lt;/div&gt;" style="text;html=1;align=left;verticalAlign=middle;resizable=0;points=[];autosize=1;strokeColor=none;fillColor=none;fontSize=15;fontFamily=Garamond;fontColor=#000000;labelBackgroundColor=none;fontStyle=1" vertex="1" parent="slJgg52BA8fFUkIbOtVV-25">
          <mxGeometry x="19" y="108" width="260" height="40" as="geometry" />
        </mxCell>
        <mxCell id="wY1P5RwbEJGx3b7p0MH7-1" value="&lt;div style=&quot;font-size: 15px; line-height: 14px;&quot;&gt;&lt;div style=&quot;font-size: 15px; line-height: 14px;&quot;&gt;&lt;div style=&quot;font-size: 15px; line-height: 14px;&quot;&gt;&lt;span style=&quot;color: rgb(0, 0, 255); font-size: 15px;&quot;&gt;void&lt;/span&gt; Savedata(&lt;span style=&quot;color: rgb(43, 145, 175); font-size: 15px;&quot;&gt;string&lt;/span&gt; &lt;span style=&quot;color: rgb(0, 0, 255); font-size: 15px;&quot;&gt;&amp;amp;&lt;/span&gt;&lt;span style=&quot;color: rgb(128, 128, 128); font-size: 15px;&quot;&gt;filename&lt;/span&gt;)&lt;/div&gt;&lt;/div&gt;&lt;/div&gt;" style="text;html=1;align=left;verticalAlign=middle;resizable=0;points=[];autosize=1;strokeColor=none;fillColor=none;fontSize=15;fontFamily=Garamond;fontColor=#000000;labelBackgroundColor=none;fontStyle=1" vertex="1" parent="slJgg52BA8fFUkIbOtVV-25">
          <mxGeometry x="19" y="148" width="210" height="30" as="geometry" />
        </mxCell>
        <mxCell id="wY1P5RwbEJGx3b7p0MH7-4" value="&lt;div style=&quot;color: rgb(0, 0, 0); font-size: 15px; line-height: 14px; white-space: pre;&quot;&gt;&lt;div style=&quot;font-size: 15px;&quot;&gt;&lt;span style=&quot;color: rgb(0, 0, 255); font-size: 15px;&quot;&gt;void&lt;/span&gt;&lt;span style=&quot;color: rgb(0, 0, 0); font-size: 15px;&quot;&gt; &lt;/span&gt;&lt;span style=&quot;color: rgb(0, 0, 0); font-size: 15px;&quot;&gt;modifydata&lt;/span&gt;&lt;span style=&quot;color: rgb(0, 0, 0); font-size: 15px;&quot;&gt;()&lt;/span&gt;&lt;/div&gt;&lt;/div&gt;" style="text;html=1;align=left;verticalAlign=middle;whiteSpace=wrap;rounded=0;labelBackgroundColor=none;fontSize=15;fontStyle=1;fontFamily=Garamond;" vertex="1" parent="slJgg52BA8fFUkIbOtVV-25">
          <mxGeometry x="19" y="178" width="60" height="30" as="geometry" />
        </mxCell>
        <mxCell id="slJgg52BA8fFUkIbOtVV-29" style="html=1;entryX=0;entryY=0.5;entryDx=0;entryDy=0;fontFamily=Georgia;fontSize=12;fontColor=#000000;startSize=30;edgeStyle=orthogonalEdgeStyle;" edge="1" parent="1" target="slJgg52BA8fFUkIbOtVV-3">
          <mxGeometry relative="1" as="geometry">
            <Array as="points">
              <mxPoint x="-254" y="-575" />
              <mxPoint x="-280" y="-575" />
              <mxPoint x="-280" y="-135" />
            </Array>
            <mxPoint x="-254" y="-578" as="sourcePoint" />
          </mxGeometry>
        </mxCell>
        <mxCell id="slJgg52BA8fFUkIbOtVV-30" value="" style="group;fillColor=#CCCCCC;opacity=10;" vertex="1" connectable="0" parent="1">
          <mxGeometry x="-770" y="-810" width="310" height="460" as="geometry" />
        </mxCell>
        <mxCell id="slJgg52BA8fFUkIbOtVV-31" value="" style="rounded=0;whiteSpace=wrap;html=1;strokeColor=default;fontFamily=Georgia;fontSize=12;fontColor=#000000;startSize=30;fillColor=none;" vertex="1" parent="slJgg52BA8fFUkIbOtVV-30">
          <mxGeometry width="310" height="460" as="geometry" />
        </mxCell>
        <mxCell id="slJgg52BA8fFUkIbOtVV-32" value="address [0]" style="swimlane;fontStyle=0;childLayout=stackLayout;horizontal=1;startSize=30;horizontalStack=0;resizeParent=1;resizeParentMax=0;resizeLast=0;collapsible=1;marginBottom=0;whiteSpace=wrap;html=1;strokeColor=default;fontFamily=Georgia;fontSize=12;fontColor=#000000;fillColor=default;swimlaneFillColor=#FFFFFF;" vertex="1" parent="slJgg52BA8fFUkIbOtVV-30">
          <mxGeometry x="30" y="60" width="120" height="390" as="geometry" />
        </mxCell>
        <mxCell id="slJgg52BA8fFUkIbOtVV-33" value="" style="group" vertex="1" connectable="0" parent="slJgg52BA8fFUkIbOtVV-32">
          <mxGeometry y="30" width="120" height="120" as="geometry" />
        </mxCell>
        <mxCell id="slJgg52BA8fFUkIbOtVV-34" value="&#39;13.01 데이터" style="text;strokeColor=none;fillColor=none;align=left;verticalAlign=middle;spacingLeft=4;spacingRight=4;overflow=hidden;points=[[0,0.5],[1,0.5]];portConstraint=eastwest;rotatable=0;whiteSpace=wrap;html=1;fontFamily=Georgia;fontSize=12;fontColor=#000000;startSize=30;" vertex="1" parent="slJgg52BA8fFUkIbOtVV-33">
          <mxGeometry width="120" height="30" as="geometry" />
        </mxCell>
        <mxCell id="slJgg52BA8fFUkIbOtVV-35" value="&#39;13.02 데이터" style="text;strokeColor=none;fillColor=none;align=left;verticalAlign=middle;spacingLeft=4;spacingRight=4;overflow=hidden;points=[[0,0.5],[1,0.5]];portConstraint=eastwest;rotatable=0;whiteSpace=wrap;html=1;fontFamily=Georgia;fontSize=12;fontColor=#000000;startSize=30;" vertex="1" parent="slJgg52BA8fFUkIbOtVV-33">
          <mxGeometry y="30" width="120" height="30" as="geometry" />
        </mxCell>
        <mxCell id="slJgg52BA8fFUkIbOtVV-36" value="&#39;13.03 데이터" style="text;strokeColor=none;fillColor=none;align=left;verticalAlign=middle;spacingLeft=4;spacingRight=4;overflow=hidden;points=[[0,0.5],[1,0.5]];portConstraint=eastwest;rotatable=0;whiteSpace=wrap;html=1;fontFamily=Georgia;fontSize=12;fontColor=#000000;startSize=30;" vertex="1" parent="slJgg52BA8fFUkIbOtVV-33">
          <mxGeometry y="60" width="120" height="30" as="geometry" />
        </mxCell>
        <mxCell id="slJgg52BA8fFUkIbOtVV-37" value="&#39;13.04 데이터" style="text;strokeColor=none;fillColor=none;align=left;verticalAlign=middle;spacingLeft=4;spacingRight=4;overflow=hidden;points=[[0,0.5],[1,0.5]];portConstraint=eastwest;rotatable=0;whiteSpace=wrap;html=1;fontFamily=Georgia;fontSize=12;fontColor=#000000;startSize=30;" vertex="1" parent="slJgg52BA8fFUkIbOtVV-33">
          <mxGeometry y="90" width="120" height="30" as="geometry" />
        </mxCell>
        <mxCell id="slJgg52BA8fFUkIbOtVV-38" value="&#39;13.05 데이터" style="text;strokeColor=none;fillColor=none;align=left;verticalAlign=middle;spacingLeft=4;spacingRight=4;overflow=hidden;points=[[0,0.5],[1,0.5]];portConstraint=eastwest;rotatable=0;whiteSpace=wrap;html=1;fontFamily=Georgia;fontSize=12;fontColor=#000000;startSize=30;" vertex="1" parent="slJgg52BA8fFUkIbOtVV-32">
          <mxGeometry y="150" width="120" height="30" as="geometry" />
        </mxCell>
        <mxCell id="slJgg52BA8fFUkIbOtVV-39" value="&#39;13.06 데이터" style="text;strokeColor=none;fillColor=none;align=left;verticalAlign=middle;spacingLeft=4;spacingRight=4;overflow=hidden;points=[[0,0.5],[1,0.5]];portConstraint=eastwest;rotatable=0;whiteSpace=wrap;html=1;fontFamily=Georgia;fontSize=12;fontColor=#000000;startSize=30;" vertex="1" parent="slJgg52BA8fFUkIbOtVV-32">
          <mxGeometry y="180" width="120" height="30" as="geometry" />
        </mxCell>
        <mxCell id="slJgg52BA8fFUkIbOtVV-40" value="&#39;13.07 데이터" style="text;strokeColor=none;fillColor=none;align=left;verticalAlign=middle;spacingLeft=4;spacingRight=4;overflow=hidden;points=[[0,0.5],[1,0.5]];portConstraint=eastwest;rotatable=0;whiteSpace=wrap;html=1;fontFamily=Georgia;fontSize=12;fontColor=#000000;startSize=30;" vertex="1" parent="slJgg52BA8fFUkIbOtVV-32">
          <mxGeometry y="210" width="120" height="30" as="geometry" />
        </mxCell>
        <mxCell id="slJgg52BA8fFUkIbOtVV-41" value="&#39;13.08 데이터" style="text;strokeColor=none;fillColor=none;align=left;verticalAlign=middle;spacingLeft=4;spacingRight=4;overflow=hidden;points=[[0,0.5],[1,0.5]];portConstraint=eastwest;rotatable=0;whiteSpace=wrap;html=1;fontFamily=Georgia;fontSize=12;fontColor=#000000;startSize=30;" vertex="1" parent="slJgg52BA8fFUkIbOtVV-32">
          <mxGeometry y="240" width="120" height="30" as="geometry" />
        </mxCell>
        <mxCell id="slJgg52BA8fFUkIbOtVV-42" value="&#39;13.09 데이터" style="text;strokeColor=none;fillColor=none;align=left;verticalAlign=middle;spacingLeft=4;spacingRight=4;overflow=hidden;points=[[0,0.5],[1,0.5]];portConstraint=eastwest;rotatable=0;whiteSpace=wrap;html=1;fontFamily=Georgia;fontSize=12;fontColor=#000000;startSize=30;" vertex="1" parent="slJgg52BA8fFUkIbOtVV-32">
          <mxGeometry y="270" width="120" height="30" as="geometry" />
        </mxCell>
        <mxCell id="slJgg52BA8fFUkIbOtVV-43" value="&#39;13.10 데이터" style="text;strokeColor=none;fillColor=none;align=left;verticalAlign=middle;spacingLeft=4;spacingRight=4;overflow=hidden;points=[[0,0.5],[1,0.5]];portConstraint=eastwest;rotatable=0;whiteSpace=wrap;html=1;fontFamily=Georgia;fontSize=12;fontColor=#000000;startSize=30;" vertex="1" parent="slJgg52BA8fFUkIbOtVV-32">
          <mxGeometry y="300" width="120" height="30" as="geometry" />
        </mxCell>
        <mxCell id="slJgg52BA8fFUkIbOtVV-44" value="&#39;13.11 데이터" style="text;strokeColor=none;fillColor=none;align=left;verticalAlign=middle;spacingLeft=4;spacingRight=4;overflow=hidden;points=[[0,0.5],[1,0.5]];portConstraint=eastwest;rotatable=0;whiteSpace=wrap;html=1;fontFamily=Georgia;fontSize=12;fontColor=#000000;startSize=30;" vertex="1" parent="slJgg52BA8fFUkIbOtVV-32">
          <mxGeometry y="330" width="120" height="30" as="geometry" />
        </mxCell>
        <mxCell id="slJgg52BA8fFUkIbOtVV-45" value="&#39;13.12 데이터" style="text;strokeColor=none;fillColor=none;align=left;verticalAlign=middle;spacingLeft=4;spacingRight=4;overflow=hidden;points=[[0,0.5],[1,0.5]];portConstraint=eastwest;rotatable=0;whiteSpace=wrap;html=1;fontFamily=Georgia;fontSize=12;fontColor=#000000;startSize=30;" vertex="1" parent="slJgg52BA8fFUkIbOtVV-32">
          <mxGeometry y="360" width="120" height="30" as="geometry" />
        </mxCell>
        <mxCell id="slJgg52BA8fFUkIbOtVV-46" value="address [1]" style="swimlane;fontStyle=0;childLayout=stackLayout;horizontal=1;startSize=30;horizontalStack=0;resizeParent=1;resizeParentMax=0;resizeLast=0;collapsible=1;marginBottom=0;whiteSpace=wrap;html=1;strokeColor=default;fontFamily=Georgia;fontSize=12;fontColor=#000000;fillColor=default;swimlaneFillColor=#FFFFFF;" vertex="1" parent="slJgg52BA8fFUkIbOtVV-30">
          <mxGeometry x="160" y="60" width="120" height="60" as="geometry" />
        </mxCell>
        <mxCell id="slJgg52BA8fFUkIbOtVV-47" value="입력 대기" style="text;strokeColor=none;fillColor=none;align=left;verticalAlign=middle;spacingLeft=4;spacingRight=4;overflow=hidden;points=[[0,0.5],[1,0.5]];portConstraint=eastwest;rotatable=0;whiteSpace=wrap;html=1;fontFamily=Georgia;fontSize=12;fontColor=#000000;startSize=30;swimlaneFillColor=#FFFFFF;" vertex="1" parent="slJgg52BA8fFUkIbOtVV-46">
          <mxGeometry y="30" width="120" height="30" as="geometry" />
        </mxCell>
        <mxCell id="slJgg52BA8fFUkIbOtVV-48" value="&lt;div style=&quot;background-color: rgb(255, 255, 255); line-height: 14px; font-size: 14px;&quot;&gt;&lt;font face=&quot;Garamond&quot;&gt;&lt;span style=&quot;color: rgb(43, 145, 175); font-size: 14px;&quot;&gt;vector&lt;/span&gt;&amp;lt;&lt;span style=&quot;color: rgb(43, 145, 175); font-size: 14px;&quot;&gt;vector&lt;/span&gt;&amp;lt;&lt;span style=&quot;color: rgb(43, 145, 175); font-size: 14px;&quot;&gt;string&lt;/span&gt;&amp;gt;&amp;gt; address&lt;/font&gt;&lt;/div&gt;" style="rounded=0;whiteSpace=wrap;html=1;strokeColor=default;fontFamily=Helvetica;fontSize=14;fontColor=#000000;startSize=30;fillColor=default;fontStyle=1" vertex="1" parent="slJgg52BA8fFUkIbOtVV-30">
          <mxGeometry x="40" y="-20" width="220" height="40" as="geometry" />
        </mxCell>
        <mxCell id="slJgg52BA8fFUkIbOtVV-49" value="" style="endArrow=none;html=1;fontFamily=Georgia;fontSize=14;fontColor=#000000;startSize=30;" edge="1" parent="1">
          <mxGeometry width="50" height="50" relative="1" as="geometry">
            <mxPoint x="-300" y="-910" as="sourcePoint" />
            <mxPoint x="630" y="-910" as="targetPoint" />
          </mxGeometry>
        </mxCell>
        <mxCell id="slJgg52BA8fFUkIbOtVV-50" value="" style="edgeStyle=orthogonalEdgeStyle;html=1;fontFamily=Georgia;fontSize=14;fontColor=#000000;startSize=30;" edge="1" parent="1" source="slJgg52BA8fFUkIbOtVV-51" target="slJgg52BA8fFUkIbOtVV-53">
          <mxGeometry relative="1" as="geometry" />
        </mxCell>
        <mxCell id="slJgg52BA8fFUkIbOtVV-51" value="데이터 입력" style="rounded=0;whiteSpace=wrap;html=1;strokeColor=default;fontFamily=Georgia;fontSize=20;fontColor=#000000;startSize=30;fillColor=default;fontStyle=1" vertex="1" parent="1">
          <mxGeometry x="-732" y="-1110" width="224" height="70" as="geometry" />
        </mxCell>
        <mxCell id="slJgg52BA8fFUkIbOtVV-52" style="edgeStyle=orthogonalEdgeStyle;html=1;entryX=0.5;entryY=0;entryDx=0;entryDy=0;fontFamily=Georgia;fontSize=14;fontColor=#000000;startSize=30;" edge="1" parent="1" source="slJgg52BA8fFUkIbOtVV-53" target="slJgg52BA8fFUkIbOtVV-48">
          <mxGeometry relative="1" as="geometry" />
        </mxCell>
        <mxCell id="slJgg52BA8fFUkIbOtVV-53" value="반복문 / getline" style="rhombus;whiteSpace=wrap;html=1;fontSize=17;fontFamily=Georgia;fontColor=#000000;rounded=0;startSize=30;fontStyle=1" vertex="1" parent="1">
          <mxGeometry x="-741.15" y="-1005" width="242.31" height="105" as="geometry" />
        </mxCell>
        <mxCell id="slJgg52BA8fFUkIbOtVV-54" style="edgeStyle=orthogonalEdgeStyle;html=1;fontFamily=Georgia;fontSize=14;fontColor=#000000;startSize=30;entryX=0.5;entryY=0;entryDx=0;entryDy=0;" edge="1" parent="1" source="slJgg52BA8fFUkIbOtVV-31" target="slJgg52BA8fFUkIbOtVV-25">
          <mxGeometry relative="1" as="geometry">
            <mxPoint x="50" y="-590" as="targetPoint" />
            <Array as="points">
              <mxPoint x="-64" y="-740" />
            </Array>
          </mxGeometry>
        </mxCell>
        <mxCell id="slJgg52BA8fFUkIbOtVV-55" style="edgeStyle=orthogonalEdgeStyle;html=1;fontFamily=Georgia;fontSize=17;fontColor=#000000;startSize=30;fontStyle=1" edge="1" parent="1" source="slJgg52BA8fFUkIbOtVV-57">
          <mxGeometry relative="1" as="geometry">
            <Array as="points">
              <mxPoint x="-370" y="-250" />
              <mxPoint x="-370" y="-997" />
            </Array>
            <mxPoint x="-300" y="-997" as="targetPoint" />
          </mxGeometry>
        </mxCell>
        <mxCell id="slJgg52BA8fFUkIbOtVV-56" style="edgeStyle=orthogonalEdgeStyle;html=1;entryX=0.5;entryY=0;entryDx=0;entryDy=0;fontFamily=Georgia;fontSize=14;fontColor=#000000;startSize=30;" edge="1" parent="1" source="slJgg52BA8fFUkIbOtVV-57" target="slJgg52BA8fFUkIbOtVV-61">
          <mxGeometry relative="1" as="geometry" />
        </mxCell>
        <mxCell id="slJgg52BA8fFUkIbOtVV-57" value="핸들러 호출" style="rounded=0;whiteSpace=wrap;html=1;strokeColor=default;fontFamily=Georgia;fontSize=20;fontColor=#000000;startSize=30;fillColor=default;fontStyle=1" vertex="1" parent="1">
          <mxGeometry x="-695" y="-275" width="160" height="50" as="geometry" />
        </mxCell>
        <mxCell id="slJgg52BA8fFUkIbOtVV-58" style="edgeStyle=orthogonalEdgeStyle;html=1;entryX=0.5;entryY=0;entryDx=0;entryDy=0;fontFamily=Georgia;fontSize=14;fontColor=#000000;startSize=30;" edge="1" parent="1" source="slJgg52BA8fFUkIbOtVV-31" target="slJgg52BA8fFUkIbOtVV-57">
          <mxGeometry relative="1" as="geometry" />
        </mxCell>
        <mxCell id="slJgg52BA8fFUkIbOtVV-59" style="edgeStyle=orthogonalEdgeStyle;html=1;entryX=0;entryY=0.5;entryDx=0;entryDy=0;fontFamily=Georgia;fontSize=14;fontColor=#000000;startSize=30;" edge="1" parent="1" source="slJgg52BA8fFUkIbOtVV-3" target="slJgg52BA8fFUkIbOtVV-11">
          <mxGeometry relative="1" as="geometry" />
        </mxCell>
        <mxCell id="slJgg52BA8fFUkIbOtVV-60" style="edgeStyle=orthogonalEdgeStyle;html=1;entryX=0;entryY=0.5;entryDx=0;entryDy=0;fontFamily=Georgia;fontSize=14;fontColor=#000000;startSize=30;" edge="1" parent="1" source="slJgg52BA8fFUkIbOtVV-3" target="slJgg52BA8fFUkIbOtVV-19">
          <mxGeometry relative="1" as="geometry" />
        </mxCell>
        <mxCell id="slJgg52BA8fFUkIbOtVV-61" value="종료" style="rounded=0;whiteSpace=wrap;html=1;strokeColor=default;fontFamily=Georgia;fontSize=20;fontColor=#000000;startSize=30;fillColor=default;fontStyle=1" vertex="1" parent="1">
          <mxGeometry x="-675" y="-90" width="120" height="50" as="geometry" />
        </mxCell>
      </root>
    </mxGraphModel>
  </diagram>
</mxfile>
